<svg width="100" height="100" viewBox="0 0 100 100" fill="none" xmlns="http://www.w3.org/2000/svg">
<path d="M70.8333 79.1666H25C15.8083 79.1666 8.33333 71.6916 8.33333 62.5C8.33763 58.805 9.56751 55.2159 11.8303 52.2949C14.0931 49.3738 17.2609 47.2859 20.8375 46.3583L20.8333 45.8333C20.8333 32.0458 32.0458 20.8333 45.8333 20.8333C51.0104 20.8247 56.0611 22.4319 60.2811 25.4308C64.5012 28.4296 67.6803 32.6706 69.375 37.5625C81.6333 36.5375 91.6667 46.3666 91.6667 58.3333C91.6667 69.8208 82.3208 79.1666 70.8333 79.1666ZM24.6042 54.1416C20.4042 54.1666 16.6667 57.9041 16.6667 62.5C16.6667 67.0958 20.4042 70.8333 25 70.8333H70.8333C77.725 70.8333 83.3333 65.225 83.3333 58.3333C83.3333 51.4416 77.725 45.8333 70.8333 45.8333C69.8208 45.8333 68.75 46.0041 67.4583 46.375L62.9792 47.6541L62.2042 43.0583C61.5674 39.1769 59.5711 35.6484 56.572 33.1035C53.573 30.5586 49.7666 29.1632 45.8333 29.1666C43.3585 29.169 40.9153 29.7219 38.6806 30.7853C36.4459 31.8487 34.4758 33.3959 32.9131 35.3149C31.3503 37.2338 30.234 39.4764 29.6452 41.8801C29.0563 44.2838 29.0095 46.7884 29.5083 49.2125L30.525 54.2083L24.6042 54.1416Z" fill="white"/>
</svg>
