<svg width="100" height="100" viewBox="0 0 100 100" fill="none" xmlns="http://www.w3.org/2000/svg">
<path d="M70.8333 72C69.7282 72 68.6684 71.561 67.887 70.7796C67.1056 69.9982 66.6666 68.9384 66.6666 67.8333C66.6666 66.7283 67.1056 65.6685 67.887 64.8871C68.6684 64.1056 69.7282 63.6667 70.8333 63.6667C77.725 63.6667 83.3333 58.0583 83.3333 51.1667C83.3333 44.275 77.725 38.6667 70.8333 38.6667C69.8208 38.6667 68.75 38.8375 67.4583 39.2083L62.9791 40.4875L62.2083 35.8917C61.5699 32.0103 59.5725 28.4822 56.5729 25.9375C53.5733 23.3928 49.7669 21.9972 45.8333 22C43.3585 22.0024 40.9153 22.5553 38.6806 23.6187C36.4459 24.6821 34.4758 26.2293 32.913 28.1483C31.3503 30.0672 30.234 32.3098 29.6451 34.7135C29.0563 37.1172 29.0095 39.6218 29.5083 42.0458L30.525 47.0417L24.6083 46.975C20.4041 47 16.6666 50.7375 16.6666 55.3333C16.6666 59.9292 20.4041 63.6667 25 63.6667C26.105 63.6667 27.1649 64.1056 27.9463 64.8871C28.7277 65.6685 29.1666 66.7283 29.1666 67.8333C29.1666 68.9384 28.7277 69.9982 27.9463 70.7796C27.1649 71.561 26.105 72 25 72C15.8083 72 8.33331 64.525 8.33331 55.3333C8.33761 51.6384 9.56749 48.0493 11.8303 45.1282C14.0931 42.2072 17.2609 40.1193 20.8375 39.1917L20.8333 38.6667C20.8333 24.8792 32.0458 13.6667 45.8333 13.6667C51.0104 13.6581 56.0611 15.2653 60.2811 18.2641C64.5012 21.263 67.6802 25.504 69.375 30.3958C81.6208 29.3792 91.6667 39.2 91.6667 51.1667C91.6667 62.6542 82.3208 72 70.8333 72ZM43.75 72L47.9166 59.5L52.0833 72C52.3007 72.6591 52.3587 73.3604 52.2524 74.0463C52.1461 74.7321 51.8787 75.383 51.472 75.9454C51.0653 76.5078 50.5309 76.9657 49.9129 77.2815C49.2948 77.5973 48.6107 77.7619 47.9166 77.7619C47.2226 77.7619 46.5385 77.5973 45.9204 77.2815C45.3024 76.9657 44.768 76.5078 44.3613 75.9454C43.9546 75.383 43.6872 74.7321 43.5809 74.0463C43.4746 73.3604 43.5326 72.6591 43.75 72ZM56.25 80.3333L60.4166 67.8333L64.5833 80.3333C64.8007 80.9924 64.8587 81.6937 64.7524 82.3796C64.6461 83.0655 64.3787 83.7163 63.972 84.2787C63.5653 84.8411 63.0309 85.299 62.4129 85.6148C61.7948 85.9306 61.1107 86.0953 60.4166 86.0953C59.7226 86.0953 59.0385 85.9306 58.4204 85.6148C57.8024 85.299 57.268 84.8411 56.8613 84.2787C56.4546 83.7163 56.1872 83.0655 56.0809 82.3796C55.9746 81.6937 56.0326 80.9924 56.25 80.3333ZM31.25 80.3333L35.4166 67.8333L39.5833 80.3333C39.8007 80.9924 39.8587 81.6937 39.7524 82.3796C39.6461 83.0655 39.3787 83.7163 38.972 84.2787C38.5653 84.8411 38.0309 85.299 37.4129 85.6148C36.7948 85.9306 36.1107 86.0953 35.4166 86.0953C34.7226 86.0953 34.0385 85.9306 33.4204 85.6148C32.8024 85.299 32.268 84.8411 31.8613 84.2787C31.4546 83.7163 31.1872 83.0655 31.0809 82.3796C30.9746 81.6937 31.0326 80.9924 31.25 80.3333Z" fill="white"/>
</svg>
