<svg width="100" height="100" viewBox="0 0 100 100" fill="none" xmlns="http://www.w3.org/2000/svg">
<path d="M50 10C50.9946 10 51.9484 10.3951 52.6517 11.0983C53.3549 11.8016 53.75 12.7554 53.75 13.75V24.7L61.1 17.35C61.4433 16.9816 61.8573 16.6861 62.3173 16.4811C62.7773 16.2761 63.2739 16.1659 63.7774 16.157C64.2809 16.1482 64.7811 16.2408 65.248 16.4294C65.7149 16.618 66.1391 16.8987 66.4952 17.2548C66.8513 17.6109 67.132 18.0351 67.3206 18.502C67.5092 18.969 67.6018 19.4691 67.593 19.9726C67.5841 20.4761 67.4739 20.9727 67.2689 21.4327C67.0639 21.8927 66.7684 22.3067 66.4 22.65L53.75 35.3V46.25H64.7L77.35 33.6C77.6933 33.2316 78.1073 32.9361 78.5673 32.7311C79.0273 32.5261 79.5239 32.4159 80.0274 32.407C80.5309 32.3982 81.0311 32.4908 81.498 32.6794C81.9649 32.868 82.3891 33.1487 82.7452 33.5048C83.1013 33.8609 83.382 34.2851 83.5706 34.752C83.7592 35.219 83.8518 35.7191 83.843 36.2226C83.8341 36.7261 83.7239 37.2227 83.5189 37.6827C83.3139 38.1427 83.0184 38.5567 82.65 38.9L75.3 46.25H86.25C87.2446 46.25 88.1984 46.6451 88.9017 47.3484C89.6049 48.0516 90 49.0054 90 50C90 50.9946 89.6049 51.9484 88.9017 52.6517C88.1984 53.3549 87.2446 53.75 86.25 53.75H75.3L82.65 61.1C83.0184 61.4433 83.3139 61.8573 83.5189 62.3173C83.7239 62.7773 83.8341 63.2739 83.843 63.7774C83.8518 64.2809 83.7592 64.7811 83.5706 65.248C83.382 65.7149 83.1013 66.1391 82.7452 66.4952C82.3891 66.8513 81.9649 67.132 81.498 67.3206C81.0311 67.5092 80.5309 67.6018 80.0274 67.593C79.5239 67.5841 79.0273 67.4739 78.5673 67.2689C78.1073 67.0639 77.6933 66.7684 77.35 66.4L64.7 53.75H53.75V64.7L66.4 77.35C66.7684 77.6933 67.0639 78.1073 67.2689 78.5673C67.4739 79.0273 67.5841 79.5239 67.593 80.0274C67.6018 80.5309 67.5092 81.0311 67.3206 81.498C67.132 81.9649 66.8513 82.3891 66.4952 82.7452C66.1391 83.1013 65.7149 83.382 65.248 83.5706C64.7811 83.7592 64.2809 83.8518 63.7774 83.843C63.2739 83.8341 62.7773 83.7239 62.3173 83.5189C61.8573 83.3139 61.4433 83.0184 61.1 82.65L53.75 75.3V86.25C53.75 87.2446 53.3549 88.1984 52.6517 88.9017C51.9484 89.6049 50.9946 90 50 90C49.0054 90 48.0516 89.6049 47.3484 88.9017C46.6451 88.1984 46.25 87.2446 46.25 86.25V75.3L38.9 82.65C38.1891 83.3124 37.2489 83.673 36.2774 83.6559C35.3059 83.6387 34.379 83.2452 33.6919 82.5581C33.0048 81.871 32.6113 80.9441 32.5941 79.9726C32.577 79.0011 32.9376 78.0609 33.6 77.35L46.25 64.7V53.75H35.3L22.65 66.4C21.9391 67.0624 20.9989 67.423 20.0274 67.4059C19.0559 67.3887 18.129 66.9952 17.4419 66.3081C16.7548 65.621 16.3613 64.6941 16.3441 63.7226C16.327 62.7511 16.6876 61.8109 17.35 61.1L24.7 53.75H13.75C12.7554 53.75 11.8016 53.3549 11.0983 52.6517C10.3951 51.9484 10 50.9946 10 50C10 49.0054 10.3951 48.0516 11.0983 47.3484C11.8016 46.6451 12.7554 46.25 13.75 46.25H24.7L17.35 38.9C16.6876 38.1891 16.327 37.2489 16.3441 36.2774C16.3613 35.3059 16.7548 34.379 17.4419 33.6919C18.129 33.0048 19.0559 32.6113 20.0274 32.5941C20.9989 32.577 21.9391 32.9376 22.65 33.6L35.3 46.25H46.25V35.3L33.6 22.65C32.9376 21.9391 32.577 20.9989 32.5941 20.0274C32.6113 19.0559 33.0048 18.129 33.6919 17.4419C34.379 16.7548 35.3059 16.3613 36.2774 16.3441C37.2489 16.327 38.1891 16.6876 38.9 17.35L46.25 24.7V13.75C46.25 12.7554 46.6451 11.8016 47.3484 11.0983C48.0516 10.3951 49.0054 10 50 10Z" fill="white"/>
</svg>
