<svg width="100" height="100" viewBox="0 0 100 100" fill="none" xmlns="http://www.w3.org/2000/svg">
<path d="M70.8333 69C69.7282 69 68.6684 68.561 67.887 67.7796C67.1056 66.9982 66.6666 65.9384 66.6666 64.8333C66.6666 63.7283 67.1056 62.6685 67.887 61.8871C68.6684 61.1056 69.7282 60.6667 70.8333 60.6667C77.725 60.6667 83.3333 55.0583 83.3333 48.1667C83.3333 41.275 77.725 35.6667 70.8333 35.6667C69.8416 35.6667 68.7666 35.8417 67.4458 36.2125L62.9833 37.4667L62.2083 32.8917C61.5699 29.0103 59.5725 25.4822 56.5729 22.9375C53.5733 20.3928 49.7669 18.9973 45.8333 19C43.3609 19.0038 40.9203 19.5568 38.6878 20.6193C36.4553 21.6817 34.4868 23.2269 32.9246 25.1432C31.3623 27.0595 30.2454 29.299 29.6546 31.6997C29.0638 34.1005 29.0138 36.6026 29.5083 39.025L30.5916 44.1917L24.6083 43.975C20.4 44 16.6666 47.7375 16.6666 52.3333C16.6666 56.9292 20.4 60.6667 25 60.6667C26.105 60.6667 27.1649 61.1056 27.9463 61.8871C28.7277 62.6685 29.1666 63.7283 29.1666 64.8333C29.1666 65.9384 28.7277 66.9982 27.9463 67.7796C27.1649 68.561 26.105 69 25 69C15.8125 69 8.33331 61.525 8.33331 52.3333C8.33785 48.6378 9.56833 45.0483 11.8319 42.1272C14.0955 39.2061 17.2643 37.1185 20.8416 36.1917L20.8333 35.6667C20.8333 21.8792 32.0458 10.6667 45.8333 10.6667C51.01 10.6577 56.0603 12.2648 60.2798 15.2638C64.4992 18.2628 67.6774 22.504 69.3708 27.3958C81.5583 26.3917 91.6666 36.1958 91.6666 48.1667C91.6666 59.6542 82.3208 69 70.8333 69ZM52.6625 52.3333L33.9125 69.2125L46.4125 75.25L40.1625 89.8333L58.9125 72.9583L46.4125 66.9167L52.6625 52.3333Z" fill="white"/>
</svg>
